<svg width="27" height="26" viewBox="0 0 27 26" fill="none" xmlns="http://www.w3.org/2000/svg">
<g filter="url(#filter0_d_69_13)">
<path d="M13.0608 18.4655C8.70226 18.4655 4 15.7317 4 9.73276C4 3.73387 8.70226 1 13.0608 1C15.4823 1 17.7162 1.79673 19.3722 3.24958C21.1687 4.84304 22.1217 7.09263 22.1217 9.73276C22.1217 12.3729 21.1687 14.6069 19.3722 16.2003C17.7162 17.6532 15.4666 18.4655 13.0608 18.4655Z" fill="url(#paint0_radial_69_13)"/>
<path d="M20.5423 4.54153C21.3749 5.88504 21.8092 7.48474 21.8092 9.2641C21.8092 11.9042 20.8563 14.1382 19.0597 15.7317C17.4038 17.1845 15.1542 17.9969 12.7484 17.9969C9.92703 17.9969 6.9682 16.8486 5.22165 14.4132C6.90259 17.172 10.0645 18.4655 13.0608 18.4655C15.4666 18.4655 17.7162 17.6532 19.3722 16.2003C21.1687 14.6069 22.1217 12.3729 22.1217 9.73276C22.1217 7.74251 21.5796 5.97408 20.5423 4.54153Z" fill="#EB8F00"/>
<path d="M18.9962 2.2967L17.7371 3.96826C17.6746 4.0495 17.5778 4.09637 17.4747 4.09168L15.3844 4.00263C15.2126 3.99482 15.0657 4.12917 15.0579 4.30102C15.0548 4.36975 15.0751 4.43693 15.1142 4.49317L16.3155 6.2116C16.3733 6.2944 16.3874 6.39907 16.353 6.49436L15.6219 8.4565C15.5625 8.61897 15.6453 8.79862 15.8062 8.85799C15.8703 8.88142 15.939 8.88298 16.0046 8.86424L18.0058 8.25185C18.1042 8.22217 18.2105 8.24248 18.2917 8.30653L19.9305 9.60785C20.0664 9.71408 20.2616 9.69221 20.3694 9.5563C20.4116 9.50162 20.435 9.43601 20.4366 9.36727L20.4725 7.27547C20.4741 7.17236 20.5272 7.07707 20.6131 7.02083L22.3566 5.86948C22.5003 5.77418 22.5409 5.58047 22.4456 5.43674C22.4081 5.37894 22.3519 5.3352 22.2863 5.31333L20.3069 4.63221C20.207 4.5994 20.1304 4.51816 20.1023 4.41662L19.5461 2.3998C19.4993 2.23421 19.3259 2.13735 19.1603 2.18422C19.0947 2.20297 19.0369 2.24202 18.9962 2.2967Z" fill="url(#paint1_radial_69_13)"/>
<path d="M19.6039 2.25921L20.0726 4.43381C20.1085 4.60097 20.2319 4.73532 20.396 4.78374L22.4862 5.40863C22.6424 5.46487 22.7237 5.63671 22.6674 5.79293C22.6456 5.85542 22.6034 5.90698 22.5471 5.94291L20.6725 6.96147C20.5147 7.04114 20.4147 7.20361 20.4147 7.38014L20.4335 9.65941C20.4288 9.82344 20.2913 9.9531 20.1257 9.94842C20.0601 9.94686 19.9961 9.92342 19.9461 9.88124L18.3089 8.4112C18.1823 8.2956 18.0027 8.25967 17.8402 8.31591L15.7625 9.02359C15.6031 9.06889 15.4375 8.97672 15.3907 8.81738C15.3719 8.75489 15.375 8.68771 15.4 8.62679L16.3155 6.53811C16.3842 6.37876 16.3608 6.19598 16.253 6.06007L14.9236 4.38382C14.8314 4.24478 14.8689 4.05888 15.0064 3.96515C15.0595 3.92921 15.1235 3.91203 15.1891 3.91515L17.359 4.16198C17.5293 4.18073 17.6949 4.10574 17.7933 3.96671L19.0775 2.15142C19.179 2.02019 19.368 1.99676 19.4977 2.09986C19.5508 2.14048 19.5868 2.19516 19.6039 2.25921Z" fill="#F8C52C"/>
<path d="M8.12325 2.2967L6.86411 3.96826C6.80162 4.0495 6.70476 4.09637 6.60166 4.09168L4.51142 4.00263C4.33957 3.99482 4.19273 4.12917 4.18491 4.30102C4.18179 4.36975 4.2021 4.43693 4.24115 4.49317L5.4425 6.2116C5.5003 6.2944 5.51436 6.39907 5.47999 6.49436L4.74887 8.4565C4.68951 8.61897 4.77231 8.79862 4.93321 8.85799C4.99727 8.88142 5.066 8.88298 5.13161 8.86424L7.13281 8.25185C7.23123 8.22217 7.33746 8.24248 7.41869 8.30653L9.05745 9.60785C9.19337 9.71408 9.38864 9.69221 9.49644 9.5563C9.53862 9.50162 9.56205 9.43601 9.56361 9.36727L9.59954 7.27547C9.6011 7.17236 9.65422 7.07707 9.74014 7.02083L11.4836 5.86948C11.6273 5.77418 11.6679 5.58047 11.5726 5.43674C11.5351 5.37894 11.4789 5.3352 11.4133 5.31333L9.43395 4.63221C9.33397 4.5994 9.25742 4.51816 9.2293 4.41662L8.67315 2.3998C8.62628 2.23421 8.45288 2.13735 8.28728 2.18422C8.22167 2.20297 8.16387 2.24202 8.12325 2.2967Z" fill="url(#paint2_radial_69_13)"/>
<path d="M8.73095 2.25921L9.19961 4.43381C9.23554 4.60097 9.35896 4.73532 9.52299 4.78374L11.6132 5.40863C11.7695 5.46487 11.8507 5.63671 11.7944 5.79293C11.7726 5.85542 11.7304 5.90698 11.6742 5.94291L9.7995 6.96147C9.64172 7.04114 9.54174 7.20361 9.54174 7.38014L9.56048 9.65941C9.5558 9.82344 9.41832 9.9531 9.25273 9.94842C9.18711 9.94686 9.12306 9.92342 9.07307 9.88124L7.43587 8.4112C7.30933 8.2956 7.12968 8.25967 6.96721 8.31591L4.88947 9.02359C4.73012 9.06889 4.56453 8.97672 4.51766 8.81738C4.49891 8.75489 4.50204 8.68771 4.52704 8.62679L5.44249 6.53811C5.51123 6.37876 5.4878 6.19598 5.38 6.06007L4.05056 4.38382C3.95839 4.24478 3.99588 4.05888 4.13336 3.96515C4.18647 3.92921 4.25052 3.91203 4.31614 3.91515L6.48605 4.16198C6.65633 4.18073 6.82192 4.10574 6.92034 3.96671L8.20448 2.15142C8.30603 2.02019 8.49505 1.99676 8.62472 2.09986C8.67783 2.14048 8.71376 2.19516 8.73095 2.25921Z" fill="#F8C52C"/>
<path d="M15.6164 12.7932C15.6164 13.9083 14.3865 14.5698 12.8832 14.5698C11.3799 14.5698 10.1499 13.9138 10.1499 12.7932C10.1499 11.6725 11.3799 10.4699 12.8832 10.4699C14.3865 10.4699 15.6164 11.6766 15.6164 12.7932Z" fill="#422B0D"/>
</g>
<defs>
<filter id="filter0_d_69_13" x="0" y="0" width="26.6853" height="25.4655" filterUnits="userSpaceOnUse" color-interpolation-filters="sRGB">
<feFlood flood-opacity="0" result="BackgroundImageFix"/>
<feColorMatrix in="SourceAlpha" type="matrix" values="0 0 0 0 0 0 0 0 0 0 0 0 0 0 0 0 0 0 127 0" result="hardAlpha"/>
<feOffset dy="3"/>
<feGaussianBlur stdDeviation="2"/>
<feComposite in2="hardAlpha" operator="out"/>
<feColorMatrix type="matrix" values="0 0 0 0 0.968627 0 0 0 0 0.752941 0 0 0 0 0.168627 0 0 0 1 0"/>
<feBlend mode="normal" in2="BackgroundImageFix" result="effect1_dropShadow_69_13"/>
<feBlend mode="normal" in="SourceGraphic" in2="effect1_dropShadow_69_13" result="shape"/>
</filter>
<radialGradient id="paint0_radial_69_13" cx="0" cy="0" r="1" gradientUnits="userSpaceOnUse" gradientTransform="translate(13.0608 9.73276) rotate(2.63841) scale(7.12678)">
<stop stop-color="#FFAC33"/>
<stop offset="0.5" stop-color="#F7C02B"/>
<stop offset="1" stop-color="#F4A223"/>
</radialGradient>
<radialGradient id="paint1_radial_69_13" cx="0" cy="0" r="1" gradientUnits="userSpaceOnUse" gradientTransform="translate(18.7776 5.92384) scale(3.73539)">
<stop offset="0.2" stop-color="#FF4081"/>
<stop offset="0.88" stop-color="#CC1775"/>
</radialGradient>
<radialGradient id="paint2_radial_69_13" cx="0" cy="0" r="1" gradientUnits="userSpaceOnUse" gradientTransform="translate(7.90457 5.92384) scale(3.73539)">
<stop offset="0.2" stop-color="#FF4081"/>
<stop offset="0.88" stop-color="#CC1775"/>
</radialGradient>
</defs>
</svg>
